<svg width="19" height="12" viewBox="0 0 19 12" fill="none" xmlns="http://www.w3.org/2000/svg">
    <g clip-path="url(#clip0_174_1717)">
    <path d="M18.5 1.41382H0.5V2.72409H18.5V1.41382Z" fill="#F5F5F5"/>
    <path d="M18.5 4.03436H0.5V5.34463H18.5V4.03436Z" fill="#F5F5F5"/>
    <path d="M18.5 6.65527H0.5V7.96555H18.5V6.65527Z" fill="#F5F5F5"/>
    <path d="M18.5 7.96564H0.5V9.27591H18.5V7.96564Z" fill="#41479B"/>
    <path d="M18.5 9.27588H0.5V10.5861H18.5V9.27588Z" fill="#F5F5F5"/>
    <path d="M0.810359 11.8966H18.1896C18.361 11.8966 18.5 11.7576 18.5 11.5862V10.5862H0.5V11.5862C0.5 11.7576 0.638972 11.8966 0.810359 11.8966Z" fill="#41479B"/>
    <path d="M18.5 1.41383V0.413813C18.5 0.242427 18.361 0.103455 18.1896 0.103455H0.810359C0.638972 0.10349 0.5 0.242427 0.5 0.413813V2.72417V4.03448V6.6552H18.5V5.34485H6.70689V4.03451H18.5V2.72417H6.70689V1.41383H18.5Z" fill="#41479B"/>
    <path d="M6.70689 2.72414H4.25862V0.103455H2.94828V2.72414H0.5V4.03448H2.94828V6.65516H4.25862V4.03448H6.70689V2.72414Z" fill="#F5F5F5"/>
    </g>
    <defs>
    <clipPath id="clip0_174_1717">
    <rect width="18" height="12" fill="white" transform="translate(0.5)"/>
    </clipPath>
    </defs>
</svg>