<svg width="18" height="12" viewBox="0 0 18 12" fill="none" xmlns="http://www.w3.org/2000/svg">
    <g clip-path="url(#clip0_174_1697)">
    <path d="M17.6896 11.8966H0.310359C0.138972 11.8966 0 11.7576 0 11.5862V0.413813C0 0.242427 0.138972 0.103455 0.310359 0.103455H17.6896C17.861 0.103455 18 0.242427 18 0.413813V11.5862C18 11.7576 17.861 11.8966 17.6896 11.8966Z" fill="#FF4B55"/>
    <path d="M4.66656 5.99994C4.66656 7.37208 5.77862 8.48418 7.14953 8.48418C7.66046 8.48418 8.13158 8.32717 8.524 8.06107C8.58345 8.02079 8.65211 8.09848 8.60236 8.15027C8.03937 8.73667 7.25096 9.10342 6.3737 9.10342C4.59283 9.10342 3.16247 7.60215 3.27803 5.79572C3.37896 4.21861 4.68649 2.95228 6.26592 2.89839C7.18525 2.867 8.01437 3.23856 8.60022 3.84764C8.65045 3.89988 8.58193 3.97874 8.52192 3.9381C8.12993 3.6726 7.65958 3.51573 7.14953 3.51573C5.77865 3.51573 4.66656 4.63032 4.66656 5.99994Z" fill="#F5F5F5"/>
    <path d="M10.326 5.57298L9.83959 4.93661C9.81241 4.90104 9.75553 4.92055 9.75595 4.96534L9.76305 5.7663L9.00751 6.03229C8.96525 6.04716 8.96627 6.10724 9.00899 6.12071L9.77293 6.36149L9.79244 7.16225C9.79353 7.207 9.85105 7.22461 9.87703 7.18816L10.3421 6.53601L11.1097 6.76491C11.1526 6.77771 11.1871 6.72852 11.1604 6.69252L10.6839 6.04867L11.1388 5.38939C11.1642 5.35255 11.1281 5.30452 11.0856 5.31873L10.326 5.57298Z" fill="#F5F5F5"/>
    </g>
    <defs>
    <clipPath id="clip0_174_1697">
    <rect width="18" height="12" fill="white"/>
    </clipPath>
    </defs>
</svg>