<svg width="19" height="12" viewBox="0 0 19 12" fill="none" xmlns="http://www.w3.org/2000/svg">
    <path d="M18.1896 11.8966H0.810359C0.638972 11.8966 0.5 11.7577 0.5 11.5863V0.413874C0.5 0.242488 0.638972 0.103516 0.810359 0.103516H18.1896C18.361 0.103516 18.5 0.242488 18.5 0.413874V11.5863C18.5 11.7577 18.361 11.8966 18.1896 11.8966Z" fill="#F5F5F5"/>
    <path d="M18.5 1.01072H0.5V0.413874C0.5 0.242488 0.638972 0.103516 0.810359 0.103516H18.1896C18.361 0.103516 18.5 0.242488 18.5 0.413874L18.5 1.01072Z" fill="#FF4B55"/>
    <path d="M18.5 3.73206H0.5V4.63923H18.5V3.73206Z" fill="#FF4B55"/>
    <path d="M18.5 1.91766H0.5V2.82483H18.5V1.91766Z" fill="#FF4B55"/>
    <path d="M18.5 6.45359H0.810359C0.638972 6.45359 0.5 6.31462 0.5 6.14323V5.54639H18.5V6.45359Z" fill="#FF4B55"/>
    <path d="M18.5 9.17529H0.5V10.0825H18.5V9.17529Z" fill="#FF4B55"/>
    <path d="M18.1896 11.8966H0.810359C0.638972 11.8966 0.5 11.7576 0.5 11.5862V10.9894H18.5V11.5862C18.5 11.7576 18.361 11.8966 18.1896 11.8966Z" fill="#FF4B55"/>
    <path d="M18.5 7.36096H0.5V8.26813H18.5V7.36096Z" fill="#FF4B55"/>
    <path d="M8.56894 0.103516H0.810359C0.638972 0.103516 0.5 0.242453 0.5 0.413839V6.14324C0.5 6.31463 0.638972 6.4536 0.810359 6.4536H8.56898C8.74036 6.4536 8.87933 6.31463 8.87933 6.14324V0.413839C8.8793 0.242453 8.74033 0.103516 8.56894 0.103516Z" fill="#41479B"/>
    <path d="M1.37139 0.815785L1.44009 1.0218L1.65725 1.02345C1.68537 1.0237 1.69701 1.05956 1.67441 1.07626L1.49971 1.20528L1.56525 1.41231C1.57375 1.4391 1.5432 1.46132 1.52032 1.44494L1.34366 1.31869L1.167 1.44497C1.14411 1.46132 1.11363 1.43914 1.12207 1.41235L1.1876 1.20531L1.01291 1.07629C0.990302 1.05956 1.00194 1.02373 1.03006 1.02349L1.24722 1.02183L1.31592 0.81582C1.32478 0.789101 1.36246 0.789101 1.37139 0.815785Z" fill="#F5F5F5"/>
    <path d="M1.37139 1.8934L1.44009 2.09941L1.65725 2.10106C1.68537 2.10131 1.69701 2.13717 1.67441 2.15387L1.49971 2.28289L1.56525 2.48993C1.57375 2.51671 1.5432 2.53893 1.52032 2.52255L1.34366 2.3963L1.167 2.52259C1.14411 2.53893 1.11363 2.51675 1.12207 2.48996L1.1876 2.28293L1.01291 2.1539C0.990302 2.13717 1.00194 2.10134 1.03006 2.1011L1.24722 2.09945L1.31592 1.89343C1.32478 1.86675 1.36246 1.86675 1.37139 1.8934Z" fill="#F5F5F5"/>
    <path d="M1.37139 2.97115L1.44009 3.17717L1.65725 3.17882C1.68537 3.17907 1.69701 3.21493 1.67441 3.23163L1.49971 3.36065L1.56525 3.56768C1.57375 3.59447 1.5432 3.61669 1.52032 3.60031L1.34366 3.47406L1.167 3.60034C1.14411 3.61669 1.11363 3.59451 1.12207 3.56772L1.1876 3.36068L1.01291 3.23166C0.990302 3.21493 1.00194 3.1791 1.03006 3.17886L1.24722 3.1772L1.31592 2.97119C1.32478 2.94451 1.36246 2.94451 1.37139 2.97115Z" fill="#F5F5F5"/>
    <path d="M1.37139 4.04888L1.44009 4.25489L1.65725 4.25655C1.68537 4.25679 1.69701 4.29265 1.67441 4.30935L1.49971 4.43837L1.56525 4.64541C1.57375 4.6722 1.5432 4.69442 1.52032 4.67803L1.34366 4.55179L1.167 4.67807C1.14411 4.69442 1.11363 4.67223 1.12207 4.64544L1.1876 4.43841L1.01291 4.30939C0.990302 4.29265 1.00194 4.25683 1.03006 4.25658L1.24722 4.25493L1.31592 4.04891C1.32478 4.02219 1.36246 4.02219 1.37139 4.04888Z" fill="#F5F5F5"/>
    <path d="M1.37139 5.1266L1.44009 5.33262L1.65725 5.33427C1.68537 5.33452 1.69701 5.37037 1.67441 5.38707L1.49971 5.5161L1.56525 5.72313C1.57375 5.74992 1.5432 5.77214 1.52032 5.75576L1.34366 5.62951L1.167 5.75579C1.14411 5.77214 1.11363 5.74996 1.12207 5.72317L1.1876 5.51613L1.01291 5.38711C0.990302 5.37037 1.00194 5.33455 1.03006 5.3343L1.24722 5.33265L1.31592 5.12664C1.32478 5.09988 1.36246 5.09988 1.37139 5.1266Z" fill="#F5F5F5"/>
    <path d="M2.20831 1.34408L2.277 1.5501L2.49416 1.55175C2.52229 1.552 2.53393 1.58786 2.51132 1.60456L2.33663 1.73358L2.40216 1.94061C2.41067 1.9674 2.38012 1.98962 2.35723 1.97324L2.18057 1.84696L2.00391 1.97324C1.98102 1.98959 1.95054 1.9674 1.95898 1.94061L2.02451 1.73358L1.84982 1.60456C1.82722 1.58782 1.83885 1.552 1.86698 1.55175L2.08414 1.5501L2.15283 1.34408C2.16166 1.31743 2.19941 1.31743 2.20831 1.34408Z" fill="#F5F5F5"/>
    <path d="M2.20831 2.42187L2.277 2.62788L2.49416 2.62954C2.52229 2.62978 2.53393 2.66564 2.51132 2.68234L2.33663 2.81136L2.40216 3.0184C2.41067 3.04519 2.38012 3.0674 2.35723 3.05102L2.18057 2.92474L2.00391 3.05102C1.98102 3.06737 1.95054 3.04522 1.95898 3.0184L2.02451 2.81136L1.84982 2.68234C1.82722 2.66561 1.83885 2.62978 1.86698 2.62954L2.08414 2.62788L2.15283 2.42187C2.16166 2.39518 2.19941 2.39518 2.20831 2.42187Z" fill="#F5F5F5"/>
    <path d="M2.20831 3.4995L2.277 3.70552L2.49416 3.70717C2.52229 3.70742 2.53393 3.74328 2.51132 3.75998L2.33663 3.889L2.40216 4.09603C2.41067 4.12282 2.38012 4.14504 2.35723 4.12866L2.18057 4.00238L2.00391 4.12866C1.98102 4.14501 1.95054 4.12282 1.95898 4.09603L2.02451 3.889L1.84982 3.75998C1.82722 3.74324 1.83885 3.70742 1.86698 3.70717L2.08414 3.70552L2.15283 3.4995C2.16166 3.47282 2.19941 3.47282 2.20831 3.4995Z" fill="#F5F5F5"/>
    <path d="M2.20831 4.57724L2.277 4.78325L2.49416 4.7849C2.52229 4.78515 2.53393 4.82101 2.51132 4.83771L2.33663 4.96673L2.40216 5.17377C2.41067 5.20056 2.38012 5.22277 2.35723 5.20639L2.18057 5.08011L2.00391 5.20639C1.98102 5.22274 1.95054 5.20056 1.95898 5.17377L2.02451 4.96673L1.84982 4.83771C1.82722 4.82097 1.83885 4.78515 1.86698 4.7849L2.08414 4.78325L2.15283 4.57724C2.16166 4.55059 2.19941 4.55059 2.20831 4.57724Z" fill="#F5F5F5"/>
    <path d="M3.04425 0.815789L3.11294 1.0218L3.3301 1.02346C3.35823 1.0237 3.36986 1.05956 3.34726 1.07626L3.17257 1.20528L3.2381 1.41232C3.24661 1.43911 3.21605 1.46133 3.19317 1.44494L3.01651 1.31866L2.83985 1.44494C2.81696 1.46129 2.78648 1.43911 2.79492 1.41232L2.86045 1.20528L2.68576 1.07626C2.66315 1.05953 2.67479 1.0237 2.70291 1.02346L2.92007 1.0218L2.98877 0.815789C2.99763 0.789105 3.03535 0.789105 3.04425 0.815789Z" fill="#F5F5F5"/>
    <path d="M3.04425 1.8934L3.11294 2.09941L3.3301 2.10107C3.35823 2.10131 3.36986 2.13717 3.34726 2.15387L3.17257 2.28289L3.2381 2.48993C3.24661 2.51672 3.21605 2.53894 3.19317 2.52255L3.01651 2.39627L2.83985 2.52255C2.81696 2.5389 2.78648 2.51672 2.79492 2.48993L2.86045 2.28289L2.68576 2.15387C2.66315 2.13714 2.67479 2.10131 2.70291 2.10107L2.92007 2.09941L2.98877 1.8934C2.99763 1.86675 3.03535 1.86675 3.04425 1.8934Z" fill="#F5F5F5"/>
    <path d="M3.04425 2.97116L3.11294 3.17717L3.3301 3.17883C3.35823 3.17907 3.36986 3.21493 3.34726 3.23163L3.17257 3.36065L3.2381 3.56769C3.24661 3.59448 3.21605 3.6167 3.19317 3.60031L3.01651 3.47403L2.83985 3.60031C2.81696 3.61666 2.78648 3.59448 2.79492 3.56769L2.86045 3.36065L2.68576 3.23163C2.66315 3.2149 2.67479 3.17907 2.70291 3.17883L2.92007 3.17717L2.98877 2.97116C2.99763 2.94451 3.03535 2.94451 3.04425 2.97116Z" fill="#F5F5F5"/>
    <path d="M3.04425 4.04888L3.11294 4.2549L3.3301 4.25655C3.35823 4.2568 3.36986 4.29266 3.34726 4.30935L3.17257 4.43838L3.2381 4.64541C3.24661 4.6722 3.21605 4.69442 3.19317 4.67804L3.01651 4.55176L2.83985 4.67804C2.81696 4.69438 2.78648 4.6722 2.79492 4.64541L2.86045 4.43838L2.68576 4.30935C2.66315 4.29262 2.67479 4.2568 2.70291 4.25655L2.92007 4.2549L2.98877 4.04888C2.99763 4.0222 3.03535 4.0222 3.04425 4.04888Z" fill="#F5F5F5"/>
    <path d="M3.04425 5.12661L3.11294 5.33262L3.3301 5.33427C3.35823 5.33452 3.36986 5.37038 3.34726 5.38708L3.17257 5.5161L3.2381 5.72314C3.24661 5.74993 3.21605 5.77214 3.19317 5.75576L3.01651 5.62948L2.83985 5.75576C2.81696 5.77211 2.78648 5.74993 2.79492 5.72314L2.86045 5.5161L2.68576 5.38708C2.66315 5.37034 2.67479 5.33452 2.70291 5.33427L2.92007 5.33262L2.98877 5.12661C2.99763 5.09989 3.03535 5.09989 3.04425 5.12661Z" fill="#F5F5F5"/>
    <path d="M3.88018 1.34408L3.94888 1.5501L4.16604 1.55175C4.19416 1.552 4.2058 1.58786 4.18319 1.60456L4.0085 1.73358L4.07403 1.94061C4.08254 1.9674 4.05199 1.98962 4.02911 1.97324L3.85245 1.84696L3.67579 1.97324C3.6529 1.98959 3.62242 1.9674 3.63086 1.94061L3.69639 1.73358L3.5217 1.60456C3.49909 1.58782 3.51073 1.552 3.53885 1.55175L3.75601 1.5501L3.82471 1.34408C3.83353 1.31743 3.87129 1.31743 3.88018 1.34408Z" fill="#F5F5F5"/>
    <path d="M3.88018 2.42187L3.94888 2.62788L4.16604 2.62954C4.19416 2.62978 4.2058 2.66564 4.18319 2.68234L4.0085 2.81136L4.07403 3.0184C4.08254 3.04519 4.05199 3.0674 4.02911 3.05102L3.85245 2.92474L3.67579 3.05102C3.6529 3.06737 3.62242 3.04522 3.63086 3.0184L3.69639 2.81136L3.5217 2.68234C3.49909 2.66561 3.51073 2.62978 3.53885 2.62954L3.75601 2.62788L3.82471 2.42187C3.83353 2.39518 3.87129 2.39518 3.88018 2.42187Z" fill="#F5F5F5"/>
    <path d="M3.88018 3.4995L3.94888 3.70552L4.16604 3.70717C4.19416 3.70742 4.2058 3.74328 4.18319 3.75998L4.0085 3.889L4.07403 4.09603C4.08254 4.12282 4.05199 4.14504 4.02911 4.12866L3.85245 4.00238L3.67579 4.12866C3.6529 4.14501 3.62242 4.12282 3.63086 4.09603L3.69639 3.889L3.5217 3.75998C3.49909 3.74324 3.51073 3.70742 3.53885 3.70717L3.75601 3.70552L3.82471 3.4995C3.83353 3.47282 3.87129 3.47282 3.88018 3.4995Z" fill="#F5F5F5"/>
    <path d="M3.88018 4.57724L3.94888 4.78325L4.16604 4.7849C4.19416 4.78515 4.2058 4.82101 4.18319 4.83771L4.0085 4.96673L4.07403 5.17377C4.08254 5.20056 4.05199 5.22277 4.02911 5.20639L3.85245 5.08011L3.67579 5.20639C3.6529 5.22274 3.62242 5.20056 3.63086 5.17377L3.69639 4.96673L3.5217 4.83771C3.49909 4.82097 3.51073 4.78515 3.53885 4.7849L3.75601 4.78325L3.82471 4.57724C3.83353 4.55059 3.87129 4.55059 3.88018 4.57724Z" fill="#F5F5F5"/>
    <path d="M4.71713 0.815789L4.78583 1.0218L5.00299 1.02346C5.03111 1.0237 5.04275 1.05956 5.02014 1.07626L4.84545 1.20528L4.91098 1.41232C4.91949 1.43911 4.88894 1.46133 4.86605 1.44494L4.68936 1.31866L4.5127 1.44494C4.48981 1.46129 4.45933 1.43911 4.46777 1.41232L4.5333 1.20528L4.35861 1.07626C4.336 1.05953 4.34764 1.0237 4.37577 1.02346L4.59293 1.0218L4.66162 0.815789C4.67052 0.789105 4.70824 0.789105 4.71713 0.815789Z" fill="#F5F5F5"/>
    <path d="M4.71713 1.8934L4.78583 2.09941L5.00299 2.10107C5.03111 2.10131 5.04275 2.13717 5.02014 2.15387L4.84545 2.28289L4.91098 2.48993C4.91949 2.51672 4.88894 2.53894 4.86605 2.52255L4.68936 2.39627L4.5127 2.52255C4.48981 2.5389 4.45933 2.51672 4.46777 2.48993L4.5333 2.28289L4.35861 2.15387C4.336 2.13714 4.34764 2.10131 4.37577 2.10107L4.59293 2.09941L4.66162 1.8934C4.67052 1.86675 4.70824 1.86675 4.71713 1.8934Z" fill="#F5F5F5"/>
    <path d="M4.71713 2.97116L4.78583 3.17717L5.00299 3.17883C5.03111 3.17907 5.04275 3.21493 5.02014 3.23163L4.84545 3.36065L4.91098 3.56769C4.91949 3.59448 4.88894 3.6167 4.86605 3.60031L4.68936 3.47403L4.5127 3.60031C4.48981 3.61666 4.45933 3.59448 4.46777 3.56769L4.5333 3.36065L4.35861 3.23163C4.336 3.2149 4.34764 3.17907 4.37577 3.17883L4.59293 3.17717L4.66162 2.97116C4.67052 2.94451 4.70824 2.94451 4.71713 2.97116Z" fill="#F5F5F5"/>
    <path d="M4.71713 4.04888L4.78583 4.2549L5.00299 4.25655C5.03111 4.2568 5.04275 4.29266 5.02014 4.30935L4.84545 4.43838L4.91098 4.64541C4.91949 4.6722 4.88894 4.69442 4.86605 4.67804L4.68936 4.55176L4.5127 4.67804C4.48981 4.69438 4.45933 4.6722 4.46777 4.64541L4.5333 4.43838L4.35861 4.30935C4.336 4.29262 4.34764 4.2568 4.37577 4.25655L4.59293 4.2549L4.66162 4.04888C4.67052 4.0222 4.70824 4.0222 4.71713 4.04888Z" fill="#F5F5F5"/>
    <path d="M4.71713 5.12661L4.78583 5.33262L5.00299 5.33427C5.03111 5.33452 5.04275 5.37038 5.02014 5.38708L4.84545 5.5161L4.91098 5.72314C4.91949 5.74993 4.88894 5.77214 4.86605 5.75576L4.68936 5.62948L4.5127 5.75576C4.48981 5.77211 4.45933 5.74993 4.46777 5.72314L4.5333 5.5161L4.35861 5.38708C4.336 5.37034 4.34764 5.33452 4.37577 5.33427L4.59293 5.33262L4.66162 5.12661C4.67052 5.09989 4.70824 5.09989 4.71713 5.12661Z" fill="#F5F5F5"/>
    <path d="M5.55401 1.34408L5.62271 1.5501L5.83987 1.55175C5.86799 1.552 5.87963 1.58786 5.85702 1.60456L5.68233 1.73358L5.74786 1.94061C5.75637 1.9674 5.72582 1.98962 5.70293 1.97324L5.52627 1.84696L5.34961 1.97324C5.32673 1.98959 5.29625 1.9674 5.30468 1.94061L5.37022 1.73358L5.19552 1.60456C5.17292 1.58782 5.18456 1.552 5.21268 1.55175L5.42984 1.5501L5.49854 1.34408C5.50743 1.31743 5.54512 1.31743 5.55401 1.34408Z" fill="#F5F5F5"/>
    <path d="M5.55401 2.42187L5.62271 2.62788L5.83987 2.62954C5.86799 2.62978 5.87963 2.66564 5.85702 2.68234L5.68233 2.81136L5.74786 3.0184C5.75637 3.04519 5.72582 3.0674 5.70293 3.05102L5.52627 2.92474L5.34961 3.05102C5.32673 3.06737 5.29625 3.04522 5.30468 3.0184L5.37022 2.81136L5.19552 2.68234C5.17292 2.66561 5.18456 2.62978 5.21268 2.62954L5.42984 2.62788L5.49854 2.42187C5.50743 2.39518 5.54512 2.39518 5.55401 2.42187Z" fill="#F5F5F5"/>
    <path d="M5.55401 3.4995L5.62271 3.70552L5.83987 3.70717C5.86799 3.70742 5.87963 3.74328 5.85702 3.75998L5.68233 3.889L5.74786 4.09603C5.75637 4.12282 5.72582 4.14504 5.70293 4.12866L5.52627 4.00238L5.34961 4.12866C5.32673 4.14501 5.29625 4.12282 5.30468 4.09603L5.37022 3.889L5.19552 3.75998C5.17292 3.74324 5.18456 3.70742 5.21268 3.70717L5.42984 3.70552L5.49854 3.4995C5.50743 3.47282 5.54512 3.47282 5.55401 3.4995Z" fill="#F5F5F5"/>
    <path d="M5.55401 4.57724L5.62271 4.78325L5.83987 4.7849C5.86799 4.78515 5.87963 4.82101 5.85702 4.83771L5.68233 4.96673L5.74786 5.17377C5.75637 5.20056 5.72582 5.22277 5.70293 5.20639L5.52627 5.08011L5.34961 5.20639C5.32673 5.22274 5.29625 5.20056 5.30468 5.17377L5.37022 4.96673L5.19552 4.83771C5.17292 4.82097 5.18456 4.78515 5.21268 4.7849L5.42984 4.78325L5.49854 4.57724C5.50743 4.55059 5.54512 4.55059 5.55401 4.57724Z" fill="#F5F5F5"/>
    <path d="M6.39093 0.815789L6.45962 1.0218L6.67678 1.02346C6.70491 1.0237 6.71654 1.05956 6.69394 1.07626L6.51925 1.20528L6.58478 1.41232C6.59329 1.43911 6.56274 1.46133 6.53985 1.44494L6.36319 1.31866L6.18653 1.44494C6.16364 1.46129 6.13316 1.43911 6.1416 1.41232L6.20713 1.20528L6.03244 1.07626C6.00983 1.05953 6.02147 1.0237 6.04959 1.02346L6.26675 1.0218L6.33545 0.815789C6.34427 0.789105 6.38203 0.789105 6.39093 0.815789Z" fill="#F5F5F5"/>
    <path d="M6.39093 1.8934L6.45962 2.09941L6.67678 2.10107C6.70491 2.10131 6.71654 2.13717 6.69394 2.15387L6.51925 2.28289L6.58478 2.48993C6.59329 2.51672 6.56274 2.53894 6.53985 2.52255L6.36319 2.39627L6.18653 2.52255C6.16364 2.5389 6.13316 2.51672 6.1416 2.48993L6.20713 2.28289L6.03244 2.15387C6.00983 2.13714 6.02147 2.10131 6.04959 2.10107L6.26675 2.09941L6.33545 1.8934C6.34427 1.86675 6.38203 1.86675 6.39093 1.8934Z" fill="#F5F5F5"/>
    <path d="M6.39093 2.97116L6.45962 3.17717L6.67678 3.17883C6.70491 3.17907 6.71654 3.21493 6.69394 3.23163L6.51925 3.36065L6.58478 3.56769C6.59329 3.59448 6.56274 3.6167 6.53985 3.60031L6.36319 3.47403L6.18653 3.60031C6.16364 3.61666 6.13316 3.59448 6.1416 3.56769L6.20713 3.36065L6.03244 3.23163C6.00983 3.2149 6.02147 3.17907 6.04959 3.17883L6.26675 3.17717L6.33545 2.97116C6.34427 2.94451 6.38203 2.94451 6.39093 2.97116Z" fill="#F5F5F5"/>
    <path d="M6.39093 4.04882L6.45962 4.25484L6.67678 4.25649C6.70491 4.25673 6.71654 4.29259 6.69394 4.30929L6.51925 4.43832L6.58478 4.64535C6.59329 4.67214 6.56274 4.69436 6.53985 4.67798L6.36319 4.55169L6.18653 4.67798C6.16364 4.69432 6.13316 4.67214 6.1416 4.64535L6.20713 4.43832L6.03244 4.30929C6.00983 4.29256 6.02147 4.25673 6.04959 4.25649L6.26675 4.25484L6.33545 4.04882C6.34427 4.02214 6.38203 4.02214 6.39093 4.04882Z" fill="#F5F5F5"/>
    <path d="M6.39093 5.12661L6.45962 5.33262L6.67678 5.33427C6.70491 5.33452 6.71654 5.37038 6.69394 5.38708L6.51925 5.5161L6.58478 5.72314C6.59329 5.74993 6.56274 5.77214 6.53985 5.75576L6.36319 5.62948L6.18653 5.75576C6.16364 5.77211 6.13316 5.74993 6.1416 5.72314L6.20713 5.5161L6.03244 5.38708C6.00983 5.37034 6.02147 5.33452 6.04959 5.33427L6.26675 5.33262L6.33545 5.12661C6.34427 5.09989 6.38203 5.09989 6.39093 5.12661Z" fill="#F5F5F5"/>
    <path d="M7.22686 1.34408L7.29556 1.5501L7.51272 1.55175C7.54084 1.552 7.55248 1.58786 7.52987 1.60456L7.35518 1.73358L7.42071 1.94061C7.42922 1.9674 7.39867 1.98962 7.37578 1.97324L7.19912 1.84696L7.02247 1.97324C6.99958 1.98959 6.9691 1.9674 6.97754 1.94061L7.04307 1.73358L6.86838 1.60456C6.84577 1.58782 6.85741 1.552 6.88553 1.55175L7.10269 1.5501L7.17139 1.34408C7.18025 1.31743 7.218 1.31743 7.22686 1.34408Z" fill="#F5F5F5"/>
    <path d="M7.22686 2.42187L7.29556 2.62788L7.51272 2.62954C7.54084 2.62978 7.55248 2.66564 7.52987 2.68234L7.35518 2.81136L7.42071 3.0184C7.42922 3.04519 7.39867 3.0674 7.37578 3.05102L7.19912 2.92474L7.02247 3.05102C6.99958 3.06737 6.9691 3.04522 6.97754 3.0184L7.04307 2.81136L6.86838 2.68234C6.84577 2.66561 6.85741 2.62978 6.88553 2.62954L7.10269 2.62788L7.17139 2.42187C7.18025 2.39518 7.218 2.39518 7.22686 2.42187Z" fill="#F5F5F5"/>
    <path d="M7.22686 3.4995L7.29556 3.70552L7.51272 3.70717C7.54084 3.70742 7.55248 3.74328 7.52987 3.75998L7.35518 3.889L7.42071 4.09603C7.42922 4.12282 7.39867 4.14504 7.37578 4.12866L7.19912 4.00238L7.02247 4.12866C6.99958 4.14501 6.9691 4.12282 6.97754 4.09603L7.04307 3.889L6.86838 3.75998C6.84577 3.74324 6.85741 3.70742 6.88553 3.70717L7.10269 3.70552L7.17139 3.4995C7.18025 3.47282 7.218 3.47282 7.22686 3.4995Z" fill="#F5F5F5"/>
    <path d="M7.22686 4.57724L7.29556 4.78325L7.51272 4.7849C7.54084 4.78515 7.55248 4.82101 7.52987 4.83771L7.35518 4.96673L7.42071 5.17377C7.42922 5.20056 7.39867 5.22277 7.37578 5.20639L7.19912 5.08011L7.02247 5.20639C6.99958 5.22274 6.9691 5.20056 6.97754 5.17377L7.04307 4.96673L6.86838 4.83771C6.84577 4.82097 6.85741 4.78515 6.88553 4.7849L7.10269 4.78325L7.17139 4.57724C7.18025 4.55059 7.218 4.55059 7.22686 4.57724Z" fill="#F5F5F5"/>
    <path d="M8.06378 0.815789L8.13247 1.0218L8.34963 1.02346C8.37776 1.0237 8.38939 1.05956 8.36679 1.07626L8.1921 1.20528L8.25763 1.41232C8.26614 1.43911 8.23559 1.46133 8.2127 1.44494L8.03604 1.31866L7.85938 1.44494C7.83649 1.46129 7.80601 1.43911 7.81445 1.41232L7.87998 1.20528L7.70529 1.07626C7.68268 1.05953 7.69432 1.0237 7.72245 1.02346L7.93961 1.0218L8.0083 0.815789C8.01716 0.789105 8.05485 0.789105 8.06378 0.815789Z" fill="#F5F5F5"/>
    <path d="M8.06378 1.8934L8.13247 2.09941L8.34963 2.10107C8.37776 2.10131 8.38939 2.13717 8.36679 2.15387L8.1921 2.28289L8.25763 2.48993C8.26614 2.51672 8.23559 2.53894 8.2127 2.52255L8.03604 2.39627L7.85938 2.52255C7.83649 2.5389 7.80601 2.51672 7.81445 2.48993L7.87998 2.28289L7.70529 2.15387C7.68268 2.13714 7.69432 2.10131 7.72245 2.10107L7.93961 2.09941L8.0083 1.8934C8.01716 1.86675 8.05485 1.86675 8.06378 1.8934Z" fill="#F5F5F5"/>
    <path d="M8.06378 2.97116L8.13247 3.17717L8.34963 3.17883C8.37776 3.17907 8.38939 3.21493 8.36679 3.23163L8.1921 3.36065L8.25763 3.56769C8.26614 3.59448 8.23559 3.6167 8.2127 3.60031L8.03604 3.47403L7.85938 3.60031C7.83649 3.61666 7.80601 3.59448 7.81445 3.56769L7.87998 3.36065L7.70529 3.23163C7.68268 3.2149 7.69432 3.17907 7.72245 3.17883L7.93961 3.17717L8.0083 2.97116C8.01716 2.94451 8.05485 2.94451 8.06378 2.97116Z" fill="#F5F5F5"/>
    <path d="M8.06378 4.04882L8.13247 4.25484L8.34963 4.25649C8.37776 4.25673 8.38939 4.29259 8.36679 4.30929L8.1921 4.43832L8.25763 4.64535C8.26614 4.67214 8.23559 4.69436 8.2127 4.67798L8.03604 4.55169L7.85938 4.67798C7.83649 4.69432 7.80601 4.67214 7.81445 4.64535L7.87998 4.43832L7.70529 4.30929C7.68268 4.29256 7.69432 4.25673 7.72245 4.25649L7.93961 4.25484L8.0083 4.04882C8.01716 4.02214 8.05485 4.02214 8.06378 4.04882Z" fill="#F5F5F5"/>
    <path d="M8.06378 5.12661L8.13247 5.33262L8.34963 5.33427C8.37776 5.33452 8.38939 5.37038 8.36679 5.38708L8.1921 5.5161L8.25763 5.72314C8.26614 5.74993 8.23559 5.77214 8.2127 5.75576L8.03604 5.62948L7.85938 5.75576C7.83649 5.77211 7.80601 5.74993 7.81445 5.72314L7.87998 5.5161L7.70529 5.38708C7.68268 5.37034 7.69432 5.33452 7.72245 5.33427L7.93961 5.33262L8.0083 5.12661C8.01716 5.09989 8.05485 5.09989 8.06378 5.12661Z" fill="#F5F5F5"/>
</svg>