<svg width="16" height="17" viewBox="0 0 16 17" fill="none" xmlns="http://www.w3.org/2000/svg">
    <g clip-path="url(#clip0_54_9008)">
    <path d="M8.00001 16.3333C12.1728 16.3333 15.5556 12.9505 15.5556 8.77772C15.5556 4.60491 12.1728 1.22217 8.00001 1.22217C3.8272 1.22217 0.444458 4.60491 0.444458 8.77772C0.444458 12.9505 3.8272 16.3333 8.00001 16.3333Z" fill="#F4900C"/>
    <path d="M8.00001 15.4444C12.1728 15.4444 15.5556 12.0616 15.5556 7.88881C15.5556 3.71599 12.1728 0.333252 8.00001 0.333252C3.8272 0.333252 0.444458 3.71599 0.444458 7.88881C0.444458 12.0616 3.8272 15.4444 8.00001 15.4444Z" fill="#FFCC4D"/>
    <path d="M7.99999 14.5555C11.4364 14.5555 14.2222 11.7697 14.2222 8.33331C14.2222 4.89687 11.4364 2.11108 7.99999 2.11108C4.56355 2.11108 1.77777 4.89687 1.77777 8.33331C1.77777 11.7697 4.56355 14.5555 7.99999 14.5555Z" fill="#FFE8B6"/>
    <path d="M7.99999 14.1111C11.4364 14.1111 14.2222 11.3253 14.2222 7.88885C14.2222 4.45241 11.4364 1.66663 7.99999 1.66663C4.56355 1.66663 1.77777 4.45241 1.77777 7.88885C1.77777 11.3253 4.56355 14.1111 7.99999 14.1111Z" fill="#FFAC33"/>
    <path d="M4.24133 5.15812C4.24133 4.91589 4.47911 4.81901 4.47911 4.81901L7.98044 3.17456L11.5151 4.81901C11.5151 4.81901 11.7587 4.87323 11.7587 5.15989V5.44478H4.24133V5.15812Z" fill="#FFE8B6"/>
    <path d="M11.524 6.03814C11.524 5.77858 11.2995 5.56836 11.0231 5.56836H4.94621C4.66932 5.56836 4.47643 5.77858 4.47643 6.03814C4.47643 6.21458 4.5671 6.36658 4.71155 6.44703V6.74303H5.6511V6.50791H6.59066V6.74303H7.53021V6.50791H8.46977V6.74303H9.40932V6.50791H10.3489V6.74303H11.2889V6.43503C11.4298 6.35147 11.524 6.20525 11.524 6.03814ZM12.2284 10.9999C12.2284 11.0934 12.1913 11.183 12.1252 11.2491C12.0591 11.3152 11.9695 11.3524 11.876 11.3524H4.12399C4.03052 11.3524 3.94087 11.3152 3.87477 11.2491C3.80868 11.183 3.77155 11.0934 3.77155 10.9999C3.77155 10.9064 3.80868 10.8168 3.87477 10.7507C3.94087 10.6846 4.03052 10.6475 4.12399 10.6475H11.8764C12.0707 10.6475 12.2284 10.8052 12.2284 10.9999Z" fill="#F4900C"/>
    <path d="M11.7586 5.7555C11.7586 5.81785 11.7339 5.87765 11.6898 5.92175C11.6457 5.96584 11.5859 5.99061 11.5235 5.99061H4.47598C4.41612 5.98693 4.35992 5.96055 4.31884 5.91687C4.27776 5.87318 4.25488 5.81547 4.25488 5.7555C4.25488 5.69553 4.27776 5.63782 4.31884 5.59413C4.35992 5.55044 4.41612 5.52407 4.47598 5.52039L11.5235 5.52172C11.5543 5.5216 11.5848 5.52756 11.6133 5.53925C11.6418 5.55094 11.6677 5.56814 11.6896 5.58985C11.7114 5.61156 11.7287 5.63737 11.7406 5.66579C11.7525 5.69422 11.7586 5.7247 11.7586 5.7555ZM5.41597 6.02839H10.5844V6.5555H5.41597V6.02839Z" fill="#F4900C"/>
    <path d="M5.65069 9.59064C5.65069 9.85019 5.51025 10.0604 5.33736 10.0604H5.02403C4.85114 10.0604 4.71069 9.85019 4.71069 9.59064V6.02886C4.71069 5.7693 4.85114 5.55908 5.02403 5.55908H5.33736C5.51025 5.55908 5.65069 5.7693 5.65069 6.02886V9.59064ZM11.2889 9.59064C11.2889 9.85019 11.1489 10.0604 10.9756 10.0604H10.6622C10.4894 10.0604 10.3489 9.85019 10.3489 9.59064V6.02886C10.3489 5.7693 10.4889 5.55908 10.6622 5.55908H10.9756C11.1485 5.55908 11.2889 5.7693 11.2889 6.02886V9.59064ZM7.53025 9.59064C7.53025 9.85019 7.3898 10.0604 7.21692 10.0604H6.90358C6.73069 10.0604 6.59025 9.85019 6.59025 9.59064V6.02886C6.59025 5.7693 6.73069 5.55908 6.90358 5.55908H7.21692C7.3898 5.55908 7.53025 5.7693 7.53025 6.02886V9.59064ZM9.40936 9.59064C9.40936 9.85019 9.26892 10.0604 9.09603 10.0604H8.78314C8.61025 10.0604 8.4698 9.85019 8.4698 9.59064V6.02886C8.4698 5.7693 8.61025 5.55908 8.78314 5.55908H9.09603C9.26892 5.55908 9.40936 5.7693 9.40936 6.02886V9.59064Z" fill="#FFD983"/>
    <path d="M11.8475 9.60308C11.8475 9.86263 11.6373 10.0729 11.3778 10.0729H5.26977C5.14517 10.0729 5.02568 10.0234 4.93758 9.93526C4.84948 9.84716 4.79999 9.72767 4.79999 9.60308C4.79999 9.47849 4.84948 9.359 4.93758 9.2709C5.02568 9.1828 5.14517 9.1333 5.26977 9.1333H11.3778C11.6369 9.1333 11.8475 9.34352 11.8475 9.60308Z" fill="#FFCC4D"/>
    <path d="M11.9938 10.295C11.9938 10.5545 11.7836 10.7648 11.524 10.7648H4.476C4.35141 10.7648 4.23192 10.7153 4.14382 10.6272C4.05572 10.5391 4.00623 10.4196 4.00623 10.295C4.00623 10.1704 4.05572 10.0509 4.14382 9.96279C4.23192 9.87469 4.35141 9.8252 4.476 9.8252H11.5236C11.7831 9.8252 11.9938 10.0354 11.9938 10.295Z" fill="#FFD983"/>
    <path d="M12.2284 10.6475C12.2284 10.741 12.1913 10.8306 12.1252 10.8967C12.0591 10.9628 11.9695 10.9999 11.876 10.9999H4.12399C4.07771 10.9999 4.03188 10.9908 3.98911 10.9731C3.94635 10.9554 3.9075 10.9294 3.87477 10.8967C3.84205 10.864 3.81609 10.8251 3.79837 10.7824C3.78066 10.7396 3.77155 10.6938 3.77155 10.6475C3.77155 10.6012 3.78066 10.5554 3.79837 10.5126C3.81609 10.4699 3.84205 10.431 3.87477 10.3983C3.9075 10.3655 3.94635 10.3396 3.98911 10.3219C4.03188 10.3042 4.07771 10.295 4.12399 10.295H11.8764C12.0707 10.295 12.2284 10.4528 12.2284 10.6475Z" fill="#FFD983"/>
    <path d="M11.524 5.79375C11.524 5.5342 11.2996 5.32397 11.0231 5.32397H4.94622C4.66933 5.32397 4.47644 5.5342 4.47644 5.79375C4.47644 5.9702 4.56711 6.1222 4.71155 6.20264V6.49864H5.65111V6.26353H6.59066V6.49864H7.53022V6.26353H8.46977V6.49864H9.40933V6.26353H10.3489V6.49864H11.2889V6.19064C11.4298 6.10709 11.524 5.96086 11.524 5.79375Z" fill="#FFCC4D"/>
    <path d="M4.24133 5.42789C4.24133 5.18567 4.47911 5.08878 4.47911 5.08878L7.98044 3.44434L11.5151 5.08878C11.5151 5.08878 11.7587 5.143 11.7587 5.42967V5.559H4.24133V5.42789Z" fill="#FFD983"/>
    <path d="M7.99997 4.04126C7.99997 4.04126 5.57553 5.18393 5.33375 5.28704C5.09153 5.3897 5.17242 5.55859 5.3342 5.55859H10.6542C10.904 5.55859 10.8449 5.36793 10.6466 5.26481C10.4484 5.16215 7.99997 4.04126 7.99997 4.04126Z" fill="#FFAC33"/>
    <path d="M11.7586 5.5586C11.7586 5.62095 11.7339 5.68075 11.6898 5.72485C11.6457 5.76894 11.5859 5.79371 11.5235 5.79371H4.47598C4.41612 5.79003 4.35992 5.76365 4.31884 5.71997C4.27776 5.67628 4.25488 5.61857 4.25488 5.5586C4.25488 5.49863 4.27776 5.44092 4.31884 5.39723C4.35992 5.35354 4.41612 5.32717 4.47598 5.32349L11.5235 5.32482C11.5543 5.3247 11.5848 5.33066 11.6133 5.34235C11.6418 5.35404 11.6677 5.37124 11.6896 5.39295C11.7114 5.41466 11.7287 5.44047 11.7406 5.4689C11.7525 5.49732 11.7586 5.5278 11.7586 5.5586Z" fill="#FFD983"/>
    </g>
    <defs>
    <clipPath id="clip0_54_9008">
    <rect width="16" height="16" fill="white" transform="translate(0 0.333252)"/>
    </clipPath>
    </defs>
</svg>