<svg width="18" height="18" viewBox="0 0 18 18" fill="none" xmlns="http://www.w3.org/2000/svg">
    <path d="M2.20962 13.9987L2.91524 15.1922C3.06186 15.4436 3.27261 15.641 3.52004 15.7846C4.22879 14.9036 4.72204 14.2275 5.00003 13.7564C5.28209 13.2783 5.62878 12.5304 6.04009 11.5128C4.9316 11.3699 4.0916 11.2985 3.52011 11.2985C2.97155 11.2985 2.13155 11.3699 1 11.5128C1 11.791 1.07331 12.0692 1.21994 12.3205L2.20962 13.9987Z" fill="#0066DA"/>
    <path d="M14.4801 15.7846C14.7276 15.641 14.9383 15.4436 15.0849 15.1923L15.3782 14.6987L16.7803 12.3205C16.9242 12.0747 17 11.7962 17.0001 11.5128C15.862 11.3699 15.0236 11.2985 14.4847 11.2985C13.9056 11.2985 13.0671 11.3699 11.9692 11.5128C12.3757 12.536 12.7178 13.2839 12.9956 13.7564C13.2758 14.2331 13.7706 14.9092 14.4801 15.7846Z" fill="#EA4335"/>
    <path d="M9.00003 6.48714C9.82002 5.51732 10.3851 4.76943 10.6953 4.2436C10.9451 3.82017 11.2201 3.14408 11.5201 2.21539C11.2726 2.0718 10.9886 2 10.6953 2H7.30472C7.01148 2 6.72748 2.08079 6.47998 2.21539C6.8616 3.28051 7.18548 4.03856 7.45147 4.48947C7.74547 4.98782 8.26166 5.65369 9.00003 6.48714Z" fill="#00832D"/>
    <path d="M11.9603 11.513H6.04049L3.52051 15.7847C3.76788 15.9283 4.05194 16.0001 4.34519 16.0001H13.6556C13.9489 16.0001 14.233 15.9193 14.4804 15.7847L11.9604 11.513H11.9603Z" fill="#2684FC"/>
    <path d="M9.00001 6.48711L6.48002 2.21542C6.23252 2.35901 6.02178 2.55641 5.87515 2.80772L1.21994 10.7051C1.07601 10.9509 1.00019 11.2294 1 11.5128H6.04009L9.00001 6.48711Z" fill="#00AC47"/>
    <path d="M14.4525 6.75619L12.1248 2.80748C11.9782 2.55617 11.7674 2.35877 11.52 2.21518L9 6.48694L11.9599 11.5126H16.9908C16.9908 11.2343 16.9175 10.9562 16.7709 10.7049L14.4525 6.75619Z" fill="#FFBA00"/>
</svg>