<svg width="18" height="18" viewBox="0 0 18 18" fill="none" xmlns="http://www.w3.org/2000/svg">
    <path d="M8.34739 5.25759C7.97539 5.58311 10.5546 4.90262 10.2974 6.21786C10.0484 7.48349 7.5824 5.95202 4.88018 6.08145C3.6847 6.13803 2.58972 6.49222 1.89147 7.37421C2.62121 6.51547 4.0672 6.72008 3.68995 7.31144C2.81096 8.6879 1.15798 7.69663 0 10.3922C0.138748 10.0822 0.513743 9.46526 2.13222 9.2095C3.32171 9.02194 5.29268 9.1971 5.92267 10.2147C6.61566 11.3339 3.10346 11.2068 5.04743 11.4339C7.74215 11.7485 9.77162 13.9992 12.4071 14C15.8195 14 17.9735 12.1988 17.9998 9.23663C18.047 3.87105 11.1741 2.78987 8.34739 5.25759ZM13.4233 11.1122C12.5271 11.0866 11.6203 10.7154 10.9004 10.3527C9.12663 9.45751 8.39689 9.14905 8.39689 9.10642C8.39689 9.05449 9.46187 9.48154 11.2566 8.49492C12.2938 7.92527 12.3306 7.42769 13.4241 7.32849C14.7216 7.21068 15.6455 8.20428 15.6455 9.24903C15.6455 10.2946 14.7291 11.1502 13.4233 11.1122Z" fill="#0070F0"/>
</svg>