<svg width="18" height="18" viewBox="0 0 18 18" fill="none" xmlns="http://www.w3.org/2000/svg">
    <path d="M9 1C4.58133 1 1 4.58133 1 9C1 13.4187 4.58133 17 9 17C13.4187 17 17 13.4187 17 9C17 4.58133 13.4187 1 9 1ZM13.1533 11.8293C13.1534 11.862 13.147 11.8943 13.1346 11.9245C13.1221 11.9547 13.1038 11.9821 13.0807 12.0051C13.0575 12.0282 13.0301 12.0464 12.9999 12.0588C12.9697 12.0712 12.9373 12.0775 12.9047 12.0773H11.86C11.8274 12.0774 11.7951 12.0711 11.765 12.0586C11.7349 12.0462 11.7075 12.0279 11.6844 12.0049C11.6614 11.9818 11.6431 11.9545 11.6307 11.9243C11.6183 11.8942 11.6119 11.8619 11.612 11.8293V8.61067C11.612 8.584 11.5813 8.57067 11.5587 8.58867L9.34533 10.802C9.25274 10.8935 9.12783 10.9448 8.99767 10.9448C8.86751 10.9448 8.74259 10.8935 8.65 10.802L6.43667 8.58867C6.41867 8.57067 6.38333 8.584 6.38333 8.61067V11.8293C6.38342 11.8619 6.37707 11.8942 6.36463 11.9243C6.3522 11.9545 6.33394 11.9818 6.31089 12.0049C6.28785 12.0279 6.26047 12.0462 6.23034 12.0586C6.20021 12.0711 6.16793 12.0774 6.13533 12.0773H5.09067C5.05807 12.0774 5.02579 12.0711 4.99566 12.0586C4.96553 12.0462 4.93815 12.0279 4.91511 12.0049C4.89206 11.9818 4.8738 11.9545 4.86137 11.9243C4.84893 11.8942 4.84258 11.8619 4.84267 11.8293V6.17133C4.84267 6.034 4.95333 5.92333 5.09067 5.92333H5.808C5.93941 5.92433 6.06514 5.97702 6.158 6.07L8.91133 8.82333C8.92253 8.83503 8.93599 8.84434 8.95088 8.8507C8.96578 8.85706 8.9818 8.86033 8.998 8.86033C9.0142 8.86033 9.03022 8.85706 9.04512 8.8507C9.06001 8.84434 9.07347 8.83503 9.08467 8.82333L11.838 6.07C11.9313 5.97667 12.0547 5.92333 12.188 5.92333H12.9047C13.042 5.92333 13.1527 6.034 13.1527 6.17133L13.1533 11.8293Z" fill="#ED3030"/>
</svg>