<svg width="18" height="12" viewBox="0 0 18 12" fill="none" xmlns="http://www.w3.org/2000/svg">
<path d="M20.5861 13.8621H-2.58619C-2.8147 13.8621 -3 13.6768 -3 13.4483V-1.44825C-3 -1.67676 -2.8147 -1.86206 -2.58619 -1.86206H20.5862C20.8147 -1.86206 21 -1.67676 21 -1.44825V13.4483C21 13.6768 20.8147 13.8621 20.5861 13.8621Z" fill="#F5F5F5"/>
<path d="M21 2.9761H-3V4.18567H21V2.9761Z" fill="#FF4B55"/>
<path d="M21 0.556885H-3V1.76644H21V0.556885Z" fill="#FF4B55"/>
<path d="M21 6.60478H-2.58619C-2.8147 6.60478 -3 6.41948 -3 6.19097V5.39517H21V6.60478Z" fill="#FF4B55"/>
<path d="M21 10.2338H-3V11.4433H21V10.2338Z" fill="#FF4B55"/>
<path d="M21 7.81451H-3V9.02408H21V7.81451Z" fill="#FF4B55"/>
<path d="M7.75859 -1.862H-2.58619C-2.8147 -1.862 -3 -1.67675 -3 -1.44823V6.19097C-3 6.41948 -2.8147 6.60478 -2.58619 6.60478H7.75864C7.98715 6.60478 8.17245 6.41948 8.17245 6.19097V-1.44823C8.1724 -1.67675 7.9871 -1.862 7.75859 -1.862Z" fill="#41479B"/>
<path d="M0.392328 0.524634L0.483922 0.799321L0.773468 0.801524C0.810968 0.801852 0.826484 0.849665 0.796343 0.87193L0.563422 1.04396L0.650797 1.32001C0.66214 1.35573 0.621406 1.38535 0.590891 1.36351L0.355344 1.19513L0.119797 1.36351C0.0892819 1.3853 0.0486414 1.35573 0.0598913 1.32001L0.147266 1.04396L-0.0856551 0.87193C-0.115796 0.849618 -0.10028 0.801852 -0.0627802 0.801524L0.226766 0.799321L0.31836 0.524634C0.330172 0.489103 0.380469 0.489103 0.392328 0.524634Z" fill="#F5F5F5"/>
<path d="M0.392328 1.96152L0.483922 2.23621L0.773468 2.23842C0.810968 2.23874 0.826484 2.28656 0.796343 2.30882L0.563422 2.48085L0.650797 2.7569C0.66214 2.79262 0.621406 2.82224 0.590891 2.8004L0.355344 2.63202L0.119797 2.8004C0.0892819 2.8222 0.0486414 2.79262 0.0598913 2.7569L0.147266 2.48085L-0.0856551 2.30882C-0.115796 2.28651 -0.10028 2.23874 -0.0627802 2.23842L0.226766 2.23621L0.31836 1.96152C0.330172 1.92599 0.380469 1.92599 0.392328 1.96152Z" fill="#F5F5F5"/>
<path d="M0.392328 3.39848L0.483922 3.67317L0.773468 3.67537C0.810968 3.6757 0.826484 3.72351 0.796343 3.74578L0.563422 3.91781L0.650797 4.19385C0.66214 4.22957 0.621406 4.2592 0.590891 4.23735L0.355344 4.06898L0.119797 4.23735C0.0892819 4.25915 0.0486414 4.22957 0.0598913 4.19385L0.147266 3.91781L-0.0856551 3.74578C-0.115796 3.72346 -0.10028 3.6757 -0.0627802 3.67537L0.226766 3.67317L0.31836 3.39848C0.330172 3.3629 0.380469 3.3629 0.392328 3.39848Z" fill="#F5F5F5"/>
<path d="M0.392328 4.83537L0.483922 5.11006L0.773468 5.11226C0.810968 5.11259 0.826484 5.1604 0.796343 5.18267L0.563422 5.3547L0.650797 5.63075C0.66214 5.66646 0.621406 5.69609 0.590891 5.67425L0.355344 5.50587L0.119797 5.67425C0.0892819 5.69604 0.0486414 5.66646 0.0598913 5.63075L0.147266 5.3547L-0.0856551 5.18267C-0.115796 5.16036 -0.10028 5.11259 -0.0627802 5.11226L0.226766 5.11006L0.31836 4.83537C0.330172 4.79975 0.380469 4.79975 0.392328 4.83537Z" fill="#F5F5F5"/>
<path d="M1.50756 -0.207818L1.59916 0.066869L1.8887 0.069072C1.9262 0.0694001 1.94172 0.117213 1.91158 0.139478L1.67866 0.311509L1.76603 0.587556C1.77737 0.623275 1.73664 0.652899 1.70612 0.631056L1.47058 0.462681L1.23503 0.631056C1.20452 0.652852 1.16388 0.623275 1.17513 0.587556L1.2625 0.311509L1.02958 0.139478C0.999439 0.117166 1.01495 0.0694001 1.05245 0.069072L1.342 0.066869L1.43359 -0.207818C1.44536 -0.243349 1.4957 -0.243349 1.50756 -0.207818Z" fill="#F5F5F5"/>
<path d="M1.50756 1.22914L1.59916 1.50382L1.8887 1.50603C1.9262 1.50635 1.94172 1.55417 1.91158 1.57643L1.67866 1.74846L1.76603 2.02451C1.77737 2.06023 1.73664 2.08985 1.70612 2.06801L1.47058 1.89963L1.23503 2.06801C1.20452 2.08981 1.16388 2.06027 1.17513 2.02451L1.2625 1.74846L1.02958 1.57643C0.999439 1.55412 1.01495 1.50635 1.05245 1.50603L1.342 1.50382L1.43359 1.22914C1.44536 1.19356 1.4957 1.19356 1.50756 1.22914Z" fill="#F5F5F5"/>
<path d="M1.50756 2.66606L1.59916 2.94074L1.8887 2.94295C1.9262 2.94328 1.94172 2.99109 1.91158 3.01335L1.67866 3.18538L1.76603 3.46143C1.77737 3.49715 1.73664 3.52677 1.70612 3.50493L1.47058 3.33656L1.23503 3.50493C1.20452 3.52673 1.16388 3.49715 1.17513 3.46143L1.2625 3.18538L1.02958 3.01335C0.999439 2.99104 1.01495 2.94328 1.05245 2.94295L1.342 2.94074L1.43359 2.66606C1.44536 2.63048 1.4957 2.63048 1.50756 2.66606Z" fill="#F5F5F5"/>
<path d="M1.50756 4.10294L1.59916 4.37763L1.8887 4.37983C1.9262 4.38016 1.94172 4.42797 1.91158 4.45024L1.67866 4.62227L1.76603 4.89832C1.77737 4.93403 1.73664 4.96366 1.70612 4.94182L1.47058 4.77344L1.23503 4.94182C1.20452 4.96361 1.16388 4.93403 1.17513 4.89832L1.2625 4.62227L1.02958 4.45024C0.999439 4.42793 1.01495 4.38016 1.05245 4.37983L1.342 4.37763L1.43359 4.10294C1.44536 4.06741 1.4957 4.06741 1.50756 4.10294Z" fill="#F5F5F5"/>
<path d="M2.62284 0.524634L2.71444 0.799321L3.00398 0.801524C3.04148 0.801852 3.057 0.849665 3.02686 0.87193L2.79394 1.04396L2.88131 1.32001C2.89266 1.35573 2.85192 1.38535 2.82141 1.36351L2.58581 1.19513L2.35027 1.36351C2.31975 1.3853 2.27911 1.35573 2.29036 1.32001L2.37774 1.04396L2.14481 0.87193C2.11467 0.849618 2.13019 0.801852 2.16769 0.801524L2.45723 0.799321L2.54883 0.524634C2.56069 0.489103 2.61098 0.489103 2.62284 0.524634Z" fill="#F5F5F5"/>
<path d="M2.62284 1.96152L2.71444 2.23621L3.00398 2.23842C3.04148 2.23874 3.057 2.28656 3.02686 2.30882L2.79394 2.48085L2.88131 2.7569C2.89266 2.79262 2.85192 2.82224 2.82141 2.8004L2.58581 2.63202L2.35027 2.8004C2.31975 2.8222 2.27911 2.79262 2.29036 2.7569L2.37774 2.48085L2.14481 2.30882C2.11467 2.28651 2.13019 2.23874 2.16769 2.23842L2.45723 2.23621L2.54883 1.96152C2.56069 1.92599 2.61098 1.92599 2.62284 1.96152Z" fill="#F5F5F5"/>
<path d="M2.62284 3.39848L2.71444 3.67317L3.00398 3.67537C3.04148 3.6757 3.057 3.72351 3.02686 3.74578L2.79394 3.91781L2.88131 4.19385C2.89266 4.22957 2.85192 4.2592 2.82141 4.23735L2.58581 4.06898L2.35027 4.23735C2.31975 4.25915 2.27911 4.22957 2.29036 4.19385L2.37774 3.91781L2.14481 3.74578C2.11467 3.72346 2.13019 3.6757 2.16769 3.67537L2.45723 3.67317L2.54883 3.39848C2.56069 3.3629 2.61098 3.3629 2.62284 3.39848Z" fill="#F5F5F5"/>
<path d="M2.62284 4.83537L2.71444 5.11006L3.00398 5.11226C3.04148 5.11259 3.057 5.1604 3.02686 5.18267L2.79394 5.3547L2.88131 5.63075C2.89266 5.66646 2.85192 5.69609 2.82141 5.67425L2.58581 5.50587L2.35027 5.67425C2.31975 5.69604 2.27911 5.66646 2.29036 5.63075L2.37774 5.3547L2.14481 5.18267C2.11467 5.16036 2.13019 5.11259 2.16769 5.11226L2.45723 5.11006L2.54883 4.83537C2.56069 4.79975 2.61098 4.79975 2.62284 4.83537Z" fill="#F5F5F5"/>
<path d="M3.73803 -0.207818L3.82963 0.066869L4.11917 0.069072C4.15667 0.0694001 4.17219 0.117213 4.14205 0.139478L3.90913 0.311509L3.9965 0.587556C4.00784 0.623275 3.96711 0.652899 3.93659 0.631056L3.70105 0.462681L3.4655 0.631056C3.43499 0.652852 3.39434 0.623275 3.40559 0.587556L3.49297 0.311509L3.26005 0.139478C3.22991 0.117166 3.24542 0.0694001 3.28292 0.069072L3.57247 0.066869L3.66406 -0.207818C3.67592 -0.243349 3.72617 -0.243349 3.73803 -0.207818Z" fill="#F5F5F5"/>
<path d="M3.73803 1.22914L3.82963 1.50382L4.11917 1.50603C4.15667 1.50635 4.17219 1.55417 4.14205 1.57643L3.90913 1.74846L3.9965 2.02451C4.00784 2.06023 3.96711 2.08985 3.93659 2.06801L3.70105 1.89963L3.4655 2.06801C3.43499 2.08981 3.39434 2.06027 3.40559 2.02451L3.49297 1.74846L3.26005 1.57643C3.22991 1.55412 3.24542 1.50635 3.28292 1.50603L3.57247 1.50382L3.66406 1.22914C3.67592 1.19356 3.72617 1.19356 3.73803 1.22914Z" fill="#F5F5F5"/>
<path d="M3.73803 2.66606L3.82963 2.94074L4.11917 2.94295C4.15667 2.94328 4.17219 2.99109 4.14205 3.01335L3.90913 3.18538L3.9965 3.46143C4.00784 3.49715 3.96711 3.52677 3.93659 3.50493L3.70105 3.33656L3.4655 3.50493C3.43499 3.52673 3.39434 3.49715 3.40559 3.46143L3.49297 3.18538L3.26005 3.01335C3.22991 2.99104 3.24542 2.94328 3.28292 2.94295L3.57247 2.94074L3.66406 2.66606C3.67592 2.63048 3.72617 2.63048 3.73803 2.66606Z" fill="#F5F5F5"/>
<path d="M3.73803 4.10294L3.82963 4.37763L4.11917 4.37983C4.15667 4.38016 4.17219 4.42797 4.14205 4.45024L3.90913 4.62227L3.9965 4.89832C4.00784 4.93403 3.96711 4.96366 3.93659 4.94182L3.70105 4.77344L3.4655 4.94182C3.43499 4.96361 3.39434 4.93403 3.40559 4.89832L3.49297 4.62227L3.26005 4.45024C3.22991 4.42793 3.24542 4.38016 3.28292 4.37983L3.57247 4.37763L3.66406 4.10294C3.67592 4.06741 3.72617 4.06741 3.73803 4.10294Z" fill="#F5F5F5"/>
<path d="M4.85424 0.524634L4.94584 0.799321L5.23538 0.801524C5.27288 0.801852 5.2884 0.849665 5.25826 0.87193L5.02534 1.04396L5.11271 1.32001C5.12406 1.35573 5.08332 1.38535 5.05281 1.36351L4.81726 1.19513L4.58171 1.36351C4.5512 1.3853 4.51056 1.35573 4.52181 1.32001L4.60918 1.04396L4.37626 0.87193C4.34612 0.849618 4.36163 0.801852 4.39913 0.801524L4.68868 0.799321L4.78027 0.524634C4.79204 0.489103 4.84238 0.489103 4.85424 0.524634Z" fill="#F5F5F5"/>
<path d="M4.85424 1.96152L4.94584 2.23621L5.23538 2.23842C5.27288 2.23874 5.2884 2.28656 5.25826 2.30882L5.02534 2.48085L5.11271 2.7569C5.12406 2.79262 5.08332 2.82224 5.05281 2.8004L4.81726 2.63202L4.58171 2.8004C4.5512 2.8222 4.51056 2.79262 4.52181 2.7569L4.60918 2.48085L4.37626 2.30882C4.34612 2.28651 4.36163 2.23874 4.39913 2.23842L4.68868 2.23621L4.78027 1.96152C4.79204 1.92599 4.84238 1.92599 4.85424 1.96152Z" fill="#F5F5F5"/>
<path d="M4.85424 3.39848L4.94584 3.67317L5.23538 3.67537C5.27288 3.6757 5.2884 3.72351 5.25826 3.74578L5.02534 3.91781L5.11271 4.19385C5.12406 4.22957 5.08332 4.2592 5.05281 4.23735L4.81726 4.06898L4.58171 4.23735C4.5512 4.25915 4.51056 4.22957 4.52181 4.19385L4.60918 3.91781L4.37626 3.74578C4.34612 3.72346 4.36163 3.6757 4.39913 3.67537L4.68868 3.67317L4.78027 3.39848C4.79204 3.3629 4.84238 3.3629 4.85424 3.39848Z" fill="#F5F5F5"/>
<path d="M4.85424 4.83537L4.94584 5.11006L5.23538 5.11226C5.27288 5.11259 5.2884 5.1604 5.25826 5.18267L5.02534 5.3547L5.11271 5.63075C5.12406 5.66646 5.08332 5.69609 5.05281 5.67425L4.81726 5.50587L4.58171 5.67425C4.5512 5.69604 4.51056 5.66646 4.52181 5.63075L4.60918 5.3547L4.37626 5.18267C4.34612 5.16036 4.36163 5.11259 4.39913 5.11226L4.68868 5.11006L4.78027 4.83537C4.79204 4.79975 4.84238 4.79975 4.85424 4.83537Z" fill="#F5F5F5"/>
<path d="M5.96948 -0.207818L6.06107 0.066869L6.35062 0.069072C6.38812 0.0694001 6.40363 0.117213 6.37349 0.139478L6.14057 0.311509L6.22794 0.587556C6.23929 0.623275 6.19855 0.652899 6.16804 0.631056L5.93249 0.462681L5.69695 0.631056C5.66643 0.652852 5.62579 0.623275 5.63704 0.587556L5.72441 0.311509L5.49149 0.139478C5.46135 0.117166 5.47687 0.0694001 5.51437 0.069072L5.80391 0.066869L5.89551 -0.207818C5.90732 -0.243349 5.95766 -0.243349 5.96948 -0.207818Z" fill="#F5F5F5"/>
<path d="M5.96948 1.22914L6.06107 1.50382L6.35062 1.50603C6.38812 1.50635 6.40363 1.55417 6.37349 1.57643L6.14057 1.74846L6.22794 2.02451C6.23929 2.06023 6.19855 2.08985 6.16804 2.06801L5.93249 1.89963L5.69695 2.06801C5.66643 2.08981 5.62579 2.06027 5.63704 2.02451L5.72441 1.74846L5.49149 1.57643C5.46135 1.55412 5.47687 1.50635 5.51437 1.50603L5.80391 1.50382L5.89551 1.22914C5.90732 1.19356 5.95766 1.19356 5.96948 1.22914Z" fill="#F5F5F5"/>
<path d="M5.96948 2.66606L6.06107 2.94074L6.35062 2.94295C6.38812 2.94328 6.40363 2.99109 6.37349 3.01335L6.14057 3.18538L6.22794 3.46143C6.23929 3.49715 6.19855 3.52677 6.16804 3.50493L5.93249 3.33656L5.69695 3.50493C5.66643 3.52673 5.62579 3.49715 5.63704 3.46143L5.72441 3.18538L5.49149 3.01335C5.46135 2.99104 5.47687 2.94328 5.51437 2.94295L5.80391 2.94074L5.89551 2.66606C5.90732 2.63048 5.95766 2.63048 5.96948 2.66606Z" fill="#F5F5F5"/>
<path d="M5.96948 4.10294L6.06107 4.37763L6.35062 4.37983C6.38812 4.38016 6.40363 4.42797 6.37349 4.45024L6.14057 4.62227L6.22794 4.89832C6.23929 4.93403 6.19855 4.96366 6.16804 4.94182L5.93249 4.77344L5.69695 4.94182C5.66643 4.96361 5.62579 4.93403 5.63704 4.89832L5.72441 4.62227L5.49149 4.45024C5.46135 4.42793 5.47687 4.38016 5.51437 4.37983L5.80391 4.37763L5.89551 4.10294C5.90732 4.06741 5.95766 4.06741 5.96948 4.10294Z" fill="#F5F5F5"/>
<path d="M7.08471 0.524634L7.1763 0.799321L7.46585 0.801524C7.50335 0.801852 7.51887 0.849665 7.48873 0.87193L7.2558 1.04396L7.34318 1.32001C7.35452 1.35573 7.31379 1.38535 7.28327 1.36351L7.04773 1.19513L6.81218 1.36351C6.78167 1.3853 6.74102 1.35573 6.75227 1.32001L6.83965 1.04396L6.60673 0.87193C6.57659 0.849618 6.5921 0.801852 6.6296 0.801524L6.91915 0.799321L7.01074 0.524634C7.02256 0.489103 7.07281 0.489103 7.08471 0.524634Z" fill="#F5F5F5"/>
<path d="M7.08471 1.96152L7.1763 2.23621L7.46585 2.23842C7.50335 2.23874 7.51887 2.28656 7.48873 2.30882L7.2558 2.48085L7.34318 2.7569C7.35452 2.79262 7.31379 2.82224 7.28327 2.8004L7.04773 2.63202L6.81218 2.8004C6.78167 2.8222 6.74102 2.79262 6.75227 2.7569L6.83965 2.48085L6.60673 2.30882C6.57659 2.28651 6.5921 2.23874 6.6296 2.23842L6.91915 2.23621L7.01074 1.96152C7.02256 1.92599 7.07281 1.92599 7.08471 1.96152Z" fill="#F5F5F5"/>
<path d="M7.08471 3.39848L7.1763 3.67317L7.46585 3.67537C7.50335 3.6757 7.51887 3.72351 7.48873 3.74578L7.2558 3.91781L7.34318 4.19385C7.35452 4.22957 7.31379 4.2592 7.28327 4.23735L7.04773 4.06898L6.81218 4.23735C6.78167 4.25915 6.74102 4.22957 6.75227 4.19385L6.83965 3.91781L6.60673 3.74578C6.57659 3.72346 6.5921 3.6757 6.6296 3.67537L6.91915 3.67317L7.01074 3.39848C7.02256 3.3629 7.07281 3.3629 7.08471 3.39848Z" fill="#F5F5F5"/>
<path d="M7.08471 4.83537L7.1763 5.11006L7.46585 5.11226C7.50335 5.11259 7.51887 5.1604 7.48873 5.18267L7.2558 5.3547L7.34318 5.63075C7.35452 5.66646 7.31379 5.69609 7.28327 5.67425L7.04773 5.50587L6.81218 5.67425C6.78167 5.69604 6.74102 5.66646 6.75227 5.63075L6.83965 5.3547L6.60673 5.18267C6.57659 5.16036 6.5921 5.11259 6.6296 5.11226L6.91915 5.11006L7.01074 4.83537C7.02256 4.79975 7.07281 4.79975 7.08471 4.83537Z" fill="#F5F5F5"/>
</svg>
