<svg width="16" height="17" viewBox="0 0 16 17" fill="none" xmlns="http://www.w3.org/2000/svg">
    <path d="M3.33333 14.9999C2.96667 14.9999 2.65267 14.8692 2.39133 14.6079C2.13 14.3465 1.99956 14.0328 2 13.6665V10.6332L3.83333 8.54987L4.78333 9.49987L3.45 10.9999H12.55L11.25 9.5332L12.2 8.5832L14 10.6332V13.6665C14 14.0332 13.8693 14.3472 13.608 14.6085C13.3467 14.8699 13.0329 15.0003 12.6667 14.9999H3.33333ZM7.06667 9.9332L4.75 7.5832C4.49445 7.32765 4.36667 7.01098 4.36667 6.6332C4.36667 6.25542 4.49445 5.93876 4.75 5.6832L8.01667 2.41654C8.27222 2.16098 8.58889 2.0332 8.96667 2.0332C9.34445 2.0332 9.66111 2.16098 9.91667 2.41654L12.2667 4.7332C12.5222 4.98876 12.6529 5.30254 12.6587 5.67454C12.6644 6.04654 12.5393 6.36054 12.2833 6.61654L8.95 9.94987C8.69445 10.2054 8.38045 10.3305 8.008 10.3252C7.63556 10.3199 7.32178 10.1892 7.06667 9.9332ZM11.3333 5.66654L8.96667 3.3332L5.66667 6.6332L8.03333 8.96654L11.3333 5.66654Z" fill="url(#paint0_linear_54_9072)"/>
    <defs>
    <linearGradient id="paint0_linear_54_9072" x1="8" y1="2.0332" x2="8" y2="14.9999" gradientUnits="userSpaceOnUse">
    <stop stop-color="#EF3054"/>
    <stop offset="1" stop-color="#EF3054" stop-opacity="0.64"/>
    </linearGradient>
    </defs>
</svg>